# xmcd
#
# Track frame offsets:
#	150
#	12766
#	30642
#	42029
#	62558
#	74936
#	88657
#	104647
#	118389
#	129100
#	145744
#	151975
#	163862
#	182584
#	193876
#	217204
#	226087
#
# Disc length: 3253 seconds
#
# Revision: 1
# Processed by: cddbd v1.5.2PL0 Copyright (c) Steve Scherf et al.
# Submitted via: audiograbber 1.83.01
#
DISCID=f50cb311
DTITLE=Lounge Music and Piano - Christmas Lounge
DYEAR=2006
DGENRE=Weihnachten
TTITLE0=White Christmas
TTITLE1=At home
TTITLE2=Child in the mamager
TTITLE3=Anchito
TTITLE4=Winter Wonderland
TTITLE5=Jingle Bells
TTITLE6=Le Jardin Secret
TTITLE7=Santa Claus is coming to touch
TTITLE8=I'm standing an the door
TTITLE9=Coincidence
TTITLE10=In dulci jubilo
TTITLE11=In a byre near Betlehem
TTITLE12=Back to the moon
TTITLE13=Deck the hall
TTITLE14=Fine notes
TTITLE15=Hark the angels sing
TTITLE16=Le Coup
EXTD=
EXTT0=
EXTT1=
EXTT2=
EXTT3=
EXTT4=
EXTT5=
EXTT6=
EXTT7=
EXTT8=
EXTT9=
EXTT10=
EXTT11=
EXTT12=
EXTT13=
EXTT14=
EXTT15=
EXTT16=
PLAYORDER=
